<?xml version="1.0" standalone="no"?><!DOCTYPE svg PUBLIC "-//W3C//DTD SVG 1.1//EN" "http://www.w3.org/Graphics/SVG/1.1/DTD/svg11.dtd"><svg t="1616589226472" class="icon" viewBox="0 0 1024 1024" version="1.1" xmlns="http://www.w3.org/2000/svg" p-id="2617" xmlns:xlink="http://www.w3.org/1999/xlink" width="64" height="64"><defs><style type="text/css"></style></defs><path d="M906.2 317.4V952c0 15.7-12.7 28.4-28.4 28.4H220.3c-12 0-21.6-9.7-21.6-21.6V100.6c0-8.8 7.1-15.9 15.9-15.9h443.1c0.9 0 1.4 1.1 0.8 1.8-0.4 0.4-0.4 1.1 0.1 1.5l247.5 228.6c0 0.2 0.1 0.5 0.1 0.8z" fill="#1C023B" p-id="2618"></path><path d="M551.1 417.4h-484c-7.3 0-13.2-5.9-13.2-13.2V218.7c0-7.3 5.9-13.2 13.2-13.2h484c7.3 0 13.2 5.9 13.2 13.2v185.5c0 7.3-5.9 13.2-13.2 13.2zM657.6 302.1V84.8L906.1 317H672.5c-8.2-0.1-14.9-6.7-14.9-14.9zM581.5 808.1h-50.1l-16.1-55.9H437l-15.9 55.9h-49.8l78.9-243.9h54l77.3 243.9z m-77-96.1L480 627.4c-1.6-5.4-2.7-12.4-3.3-21.3h-1.3c-0.6 7.1-1.8 14-3.8 20.6L447 712h57.5zM740.9 735.3H639.6c1.6 27 15.9 40.5 43.1 40.5 17 0 31.9-4.7 44.9-14.2v37.3c-14 8.9-32.4 13.4-55.1 13.4-24.5 0-43.5-7.8-57.1-23.5-13.6-15.6-20.4-37.4-20.4-65.4 0-27.8 7.2-50.4 21.7-67.8s32.6-26.1 54.5-26.1c21.8 0 38.8 7.5 51.1 22.4 12.3 15 18.4 35.5 18.4 61.7v21.7zM699 703.5c0-26-9.3-39.1-28-39.1-7.7 0-14.5 3.6-20.4 10.7-5.9 7.1-9.6 16.6-11.1 28.3H699z" fill="#C685FF" p-id="2619"></path><path d="M269.1 353.8h-18.6l-6-18.3h-29l-5.9 18.3h-18.5l29.2-79.9h20l28.8 79.9z m-28.6-31.4l-9.1-27.7c-0.6-1.8-1-4.1-1.2-7h-0.5c-0.2 2.3-0.7 4.6-1.4 6.8l-9.1 27.9h21.3zM330.7 353.8h-47.3V274h45.4v13.9h-28.4v18.8h26.4v13.9h-26.4v19.3h30.3v13.9zM365 326v27.8h-17V274h27.5c19.9 0 29.8 8.4 29.8 25.3 0 8.2-3 14.7-9 19.7-6 4.9-13.5 7.3-22.5 7.1H365z m0-38.8V313h7.4c10 0 15-4.3 15-13 0-8.5-4.9-12.7-14.8-12.7H365z" fill="#1C023B" p-id="2620"></path></svg>