<?xml version="1.0" standalone="no"?><!DOCTYPE svg PUBLIC "-//W3C//DTD SVG 1.1//EN" "http://www.w3.org/Graphics/SVG/1.1/DTD/svg11.dtd"><svg t="1616589117647" class="icon" viewBox="0 0 1024 1024" version="1.1" xmlns="http://www.w3.org/2000/svg" p-id="2171" xmlns:xlink="http://www.w3.org/1999/xlink" width="64" height="64"><defs><style type="text/css"></style></defs><path d="M861.229614 306.314535v600.811107c0 14.887105-12.064905 26.916733-26.916733 26.916732H211.841389c-11.324078 0-20.496228-9.17215-20.496228-20.496227v-812.440831c0-8.290213 6.738003-15.028215 15.028216-15.028215h419.449478c0.84666 0 1.305268 1.023048 0.740827 1.658042-0.388053 0.388053-0.352775 1.023048 0.070555 1.4111l234.313157 216.427464c0.176388 0.176388 0.28222 0.458608 0.28222 0.740828z" fill="#211207" p-id="2172"></path><path d="M532.901919 400.92879H59.019258c-2.575258 0-4.65663-2.081373-4.65663-4.65663v-191.204051c0-2.575258 2.081373-4.65663 4.65663-4.65663h473.847383c2.575258 0 4.65663 2.081373 4.65663 4.65663v191.204051c0 2.575258-2.081373 4.65663-4.621352 4.65663z" fill="#EE6E02" p-id="2173"></path><path d="M625.89341 291.780205V86.077101L861.123781 305.855927h-221.154649c-7.76105 0-14.075723-6.314673-14.075722-14.075722z" fill="#EE6E14" p-id="2174"></path><path d="M593.649774 770.425328h-52.245978l-16.827367-54.04513h-81.702691l-16.545147 54.04513h-51.963758l82.302408-235.900644h56.30289l80.679643 235.900644z m-80.397423-92.920936l-25.54091-81.773245c-1.658043-5.185793-2.8222-12.029628-3.492472-20.566783h-1.305268c-0.56444 6.91439-1.869708 13.54656-3.915802 19.931788l-25.682021 82.372963h59.936473zM613.264064 547.612637c0-7.514108 2.53998-13.617115 7.619941-18.344301 5.07996-4.727185 11.57102-7.090778 19.508457-7.090777 8.113825 0 14.710718 2.39887 19.7554 7.231887 5.044683 4.833018 7.549385 10.900748 7.549385 18.203191 0 7.408275-2.575258 13.581838-7.690495 18.520687s-11.676853 7.372998-19.579012 7.372998c-7.831605 0-14.322665-2.469425-19.437903-7.47883-5.185793-4.93885-7.725773-11.112413-7.725773-18.414855z m3.457196 222.812691v-168.414786h46.742687v168.414786h-46.742687z" fill="#ED6D02" p-id="2175"></path><path d="M304.903435 344.76701h-18.520688l-5.961897-19.543735h-28.962828l-5.856065 19.543735H227.187102l29.174492-85.195163h19.967066l28.574775 85.195163z m-28.50422-33.58418l-9.066318-29.527268c-0.599718-1.869708-0.98777-4.339133-1.234713-7.443552H265.639577c-0.211665 2.504703-0.670273 4.903573-1.375823 7.19661l-9.101595 29.77421h21.237056zM311.853102 264.263754c0-2.716368 0.917215-4.93885 2.716368-6.63217 1.799153-1.69332 4.09219-2.575258 6.91439-2.575257 2.892755 0 5.22107 0.881938 6.984945 2.610535 1.799153 1.728598 2.68109 3.915803 2.68109 6.561615 0 2.68109-0.917215 4.903573-2.716368 6.667447-1.83443 1.763875-4.127468 2.68109-6.949667 2.681091-2.786923 0-5.07996-0.881938-6.879113-2.681091-1.83443-1.763875-2.751645-3.986358-2.751645-6.63217z m1.234713 80.503256V283.913322h16.580425v60.853688h-16.580425z" fill="#281709" p-id="2176"></path></svg>