<?xml version="1.0" standalone="no"?><!DOCTYPE svg PUBLIC "-//W3C//DTD SVG 1.1//EN" "http://www.w3.org/Graphics/SVG/1.1/DTD/svg11.dtd"><svg t="1616588478271" class="icon" viewBox="0 0 1024 1024" version="1.1" xmlns="http://www.w3.org/2000/svg" p-id="1688" xmlns:xlink="http://www.w3.org/1999/xlink" width="64" height="64"><defs><style type="text/css"></style></defs><path d="M302.1875 932.28125v-13.03125c0.09375-109.875 0.09375-219.75 0.1875-329.625 0.1875-161.34375 0.46875-322.6875 0.65625-484.03125 0-13.40625 0-13.40625 13.59375-13.40625 185.90625-0.09375 371.8125 0.09375 557.71875-0.5625 32.71875-0.09375 58.21875 23.53125 58.125 58.3125-0.9375 242.71875-0.5625 485.34375-0.5625 728.0625 0 33.09375-21 54.1875-54 54.28125-187.875 0.09375-375.84375 0.09375-563.71875 0.09375-3.375-0.09375-6.65625-0.09375-12-0.09375z m308.8125-70.96875C584.1875 816.59375 558.3125 773.5625 532.4375 730.4375c7.03125-2.53125 13.40625-4.40625 19.5-7.03125 60.1875-25.6875 56.71875-98.0625 28.40625-127.78125-18.5625-19.40625-41.90625-28.5-67.59375-29.8125-38.71875-1.96875-77.625-1.21875-116.4375-2.15625-8.71875-0.1875-10.3125 3.09375-10.3125 10.96875 0.28125 91.96875 0.1875 183.9375 0.1875 275.90625 0 3.1875 0.375 6.46875 0.5625 9.9375h53.90625v-124.6875c9.65625 0 18.28125 0.5625 26.8125-0.1875 7.78125-0.75 11.8125 2.34375 15.375 9.09375 19.59375 36.5625 39.5625 72.84375 59.625 109.125 1.59375 2.90625 4.6875 6.9375 7.125 7.03125 19.6875 0.75 39.46875 0.46875 61.40625 0.46875zM683.5625 739.25c15.75 0 30 0.375 44.25-0.09375 25.03125-0.84375 49.3125-4.59375 72-16.59375 53.0625-28.125 50.90625-114.09375 4.96875-141.09375-16.125-9.46875-33.46875-15.09375-51.84375-15.75-37.125-1.3125-74.34375-1.03125-111.46875-1.96875-9.375-0.28125-12.46875 2.15625-12.46875 12 0.375 91.3125 0.28125 182.53125 0.28125 273.84375 0 3.5625 0.28125 7.125 0.46875 11.0625h53.71875c0.09375-40.5 0.09375-80.25 0.09375-121.40625zM247.4375 91.90625v840c-3.375 0.1875-6.5625 0.5625-9.75 0.5625-30.84375 0-61.78125 0.09375-92.625 0-32.25-0.09375-53.53125-21.46875-53.53125-53.90625 0.09375-244.03125 0.1875-488.0625 0.375-732.1875 0-32.625 21.75-54.28125 54.28125-54.375 30.1875-0.09375 60.46875-0.09375 90.65625-0.09375h10.59375z" fill="#A400B3" p-id="1689"></path><path d="M440.65625 689.9375v-80.25c26.90625 1.5 53.71875-3.65625 79.78125 5.25 16.40625 5.625 24.75 17.53125 25.03125 33.375 0.28125 18.1875-7.40625 30.375-24.1875 37.125-5.15625 2.0625-10.78125 4.125-16.21875 4.3125-21.09375 0.46875-42.1875 0.1875-64.40625 0.1875zM684.03125 695v-86.0625c23.25 1.3125 46.125 1.125 68.4375 4.3125 20.8125 3 31.59375 17.0625 31.96875 35.8125 0.46875 20.625-9 35.625-30.09375 39.5625-22.6875 4.125-46.21875 4.3125-70.3125 6.375z" fill="#A400B3" p-id="1690"></path></svg>