<?xml version="1.0" standalone="no"?><!DOCTYPE svg PUBLIC "-//W3C//DTD SVG 1.1//EN" "http://www.w3.org/Graphics/SVG/1.1/DTD/svg11.dtd"><svg t="1616564872296" class="icon" viewBox="0 0 1024 1024" version="1.1" xmlns="http://www.w3.org/2000/svg" p-id="3481" xmlns:xlink="http://www.w3.org/1999/xlink" width="64" height="64"><defs><style type="text/css"></style></defs><path d="M403.456 880.64c-202.752 0-368.64-165.888-368.64-368.64s165.888-368.64 368.64-368.64c116.736 0 223.232 54.272 292.864 145.408l-133.12 78.848c-40.96-44.032-98.304-70.656-158.72-70.656-117.76 0-215.04 96.256-215.04 215.04s96.256 215.04 215.04 215.04c60.416 0 117.76-26.624 158.72-70.656l134.144 78.848C628.736 826.368 520.192 880.64 403.456 880.64z" fill="#1D88E5" p-id="3482"></path><path d="M772.096 542.72h-60.416v61.44h-62.464v-61.44h-60.416v-61.44h60.416v-61.44h62.464v61.44h60.416v61.44z m217.088 0h-62.464v61.44h-60.416v-61.44h-62.464v-61.44h62.464v-61.44h60.416v61.44h62.464v61.44z" fill="#1D88E5" p-id="3483"></path></svg>