<?xml version="1.0" standalone="no"?><!DOCTYPE svg PUBLIC "-//W3C//DTD SVG 1.1//EN" "http://www.w3.org/Graphics/SVG/1.1/DTD/svg11.dtd"><svg t="1616565434493" class="icon" viewBox="0 0 1024 1024" version="1.1" xmlns="http://www.w3.org/2000/svg" p-id="4530" xmlns:xlink="http://www.w3.org/1999/xlink" width="64" height="64"><defs><style type="text/css"></style></defs><path d="M511.5 81C272.6 81 79 274.6 79 513.5S272.6 946 511.5 946 944 752.4 944 513.5 750.4 81 511.5 81z m-32.3 532.6c-24.7 23.8-57.1 35.8-97 35.8-45.9 0-82.7-14.1-110.3-42.3-27.6-28.2-41.4-61.4-41.4-99.4 0-38.1 13.7-71 41.2-98.9C299.2 381 335.2 367 379.9 367s85.1 17.2 121.4 51.7l-20.6 19.9c-15-14.5-31.4-25.6-49.3-33.3-17.9-7.7-36.3-11.6-55.2-11.6-19 0-38 5.1-56.9 15.4-19 10.2-33.8 24-44.4 41.4-10.6 17.4-15.9 36.1-15.9 56.4 0 31.5 11.8 58.9 35.4 82.2 23.6 23.4 53.1 35 88.6 35 27 0 50.1-7.5 69.5-22.7 19.3-15.1 30.9-35.6 34.6-61.6h-85.8V514h116.1c-0.8 42.5-13.5 75.8-38.2 99.6z m112 29h-27V373.7h27v268.9z m196.2-242.3H679.6v83.9h107.9v26.6H679.6v131.8h-27V373.7h134.8v26.6z" fill="#FC7E7E" p-id="4531"></path></svg>