<?xml version="1.0" standalone="no"?><!DOCTYPE svg PUBLIC "-//W3C//DTD SVG 1.1//EN" "http://www.w3.org/Graphics/SVG/1.1/DTD/svg11.dtd"><svg t="1616508387343" class="icon" viewBox="0 0 1024 1024" version="1.1" xmlns="http://www.w3.org/2000/svg" p-id="1309" xmlns:xlink="http://www.w3.org/1999/xlink" width="64" height="64"><defs><style type="text/css"></style></defs><path d="M715.072 911.424l-8.128 4.032-21.056 9.6-15.488 6.144-24.064 8.32-15.232 4.48-14.336 3.648a445.312 445.312 0 0 1-17.92 3.904l17.92-3.84a445.44 445.44 0 0 1-25.6 5.312l-18.944 2.944-27.008 2.816-17.792 0.96L512 960a449.216 449.216 0 0 1-104.768-12.352l-14.336-3.648A448.128 448.128 0 0 1 512 64a448 448 0 0 1 448 448l-0.192 12.928-0.512 12.864-1.088 14.848-2.176 19.2-3.712 23.04-3.136 15.36-3.776 15.488-1.28 5.056a448.32 448.32 0 0 1-22.784 63.488l-6.976 14.912-8.32 16.192-7.68 13.504-9.728 15.808a436.16 436.16 0 0 1-41.536 54.656l-13.44 14.528-16.448 16.064-15.936 14.144-2.56 2.176a467.456 467.456 0 0 1-62.272 43.52l-21.376 11.648zM528.512 128.32L512 128l-21.12 0.576-20.992 1.728-24.128 3.392-14.144 2.752a381.376 381.376 0 0 0-20.16 4.864l17.6-4.352-11.2 2.688-11.136 2.944-14.592 4.48c-6.336 2.112-12.608 4.352-18.752 6.72l16.768-6.016a381.12 381.12 0 0 0-18.56 6.656L355.84 291.52l-77.376 26.048-12.672 134.4-135.04 14.272-1.152 10.496c-0.64 6.848-1.088 13.696-1.28 20.608L128 512l0.32 15.424 1.152 18.688 0.64 6.72c0.768 6.656 1.6 13.376 2.688 19.968l2.432 13.76c1.472 7.552 3.2 15.04 5.12 22.4l92.672 5.888 130.88 135.36-23.936 105.216 1.28 0.64c5.952 2.944 11.968 5.76 18.112 8.384l9.28 3.904 18.944 7.04 9.664 3.2 16.32 4.672 16.064 3.84 6.528 1.408 11.328 2.112c8.96 1.472 18.048 2.688 27.2 3.584l13.888 1.088A384 384 0 0 0 896 512l-0.128-5.184-26.432-9.472-68.8 45.696 25.728 155.52-224.768 62.272-219.136-198.656 133.76-276.928 98.88-99.84-6.016-45.056-16.064-3.84-15.68-2.944a383.808 383.808 0 0 0-24.512-3.456l16.128 2.112-10.24-1.408-10.304-1.088-9.92-0.832-9.984-0.576z m-366.336 542.272l7.616 15.808 2.112 4.032c2.304 4.416 4.672 8.768 7.168 13.056l-7.168-13.056 4.8 8.832 2.368 4.224c4.48 7.808 9.28 15.36 14.272 22.848l7.68 11.008 12.16 15.872 14.976 17.408a386.368 386.368 0 0 0 41.408 39.168l16.384 12.672 12.288-53.888-92.224-95.232-43.84-2.752z m510.656-507.392l5.824 43.392-112.768 113.792L455.936 547.84l161.536 146.432 140.928-39.04-23.168-140.672 126.144-83.776 28.032 10.048a381.504 381.504 0 0 0-6.976-30.336l-3.84-13.12-5.312-15.744a381.504 381.504 0 0 0-12.736-30.976l-8.96-18.112-5.248-9.536-10.624-17.664-5.376-8.128a385.408 385.408 0 0 0-19.84-26.752l-12.928-15.168-11.264-12.032-7.104-7.04a386.24 386.24 0 0 0-24.64-21.952l-12.992-10.112a385.152 385.152 0 0 0-12.48-8.96l9.728 6.912-6.08-4.352-13.312-8.96-13.888-8.512-5.888-3.392-10.112-5.504-16.704-8.192zM300.672 246.656l7.04-59.84-13.824 9.088-17.28 12.608-9.088 7.36c-13.44 11.136-26.176 23.168-38.016 36.032l-11.52 13.12-11.008 13.696-13.056 18.048-9.344 14.464-7.68 13.056 3.968-6.848a383.104 383.104 0 0 0-12.928 23.872l-7.232 15.424-4.48 10.624-6.592 17.216-6.4 19.84 67.456-6.976 11.712-124.288 78.272-26.496z" fill="#2C374D" p-id="1310"></path></svg>