<?xml version="1.0" standalone="no"?><!DOCTYPE svg PUBLIC "-//W3C//DTD SVG 1.1//EN" "http://www.w3.org/Graphics/SVG/1.1/DTD/svg11.dtd"><svg t="1616563654033" class="icon" viewBox="0 0 1024 1024" version="1.1" xmlns="http://www.w3.org/2000/svg" p-id="1712" xmlns:xlink="http://www.w3.org/1999/xlink" width="64" height="64"><defs><style type="text/css"></style></defs><path d="M923.136 267.605333v701.952H193.024v-909.653333h521.216z" fill="#7CCDFF" p-id="1713"></path><path d="M912.896 253.952l2.56 671.914667c0 15.530667-12.458667 27.989333-27.989333 27.989333H237.909333c-15.530667 0-27.989333-12.458667-27.989333-27.989333V96.938667c0-15.530667 12.458667-27.989333 27.989333-27.989334l493.397334-1.024-38.912-39.936H239.274667c-36.352 0-65.706667 29.354667-65.706667 65.706667v835.584c0 36.352 29.354667 65.706667 65.706667 65.706667h646.826666c36.352 0 65.706667-29.354667 65.706667-65.706667V293.888l-38.912-39.936z" fill="#4191FB" p-id="1714"></path><path d="M692.394667 222.72c0 39.424 31.914667 71.338667 71.338666 71.338667h188.245334L692.394667 27.989333v194.730667z" fill="#C7E2FF" p-id="1715"></path><path d="M557.568 482.304H158.72c-50.346667 0-91.136-40.789333-91.136-91.136v-60.245333c0-50.346667 40.789333-91.136 91.136-91.136h398.848c50.346667 0 91.136 40.789333 91.136 91.136v60.245333c0 50.346667-40.789333 91.136-91.136 91.136z" fill="#4191FB" p-id="1716"></path><path d="M180.053333 287.573333h46.08v155.818667h-46.08v-155.818667zM251.050667 391.850667l43.861333-2.901334c1.024 7.509333 2.901333 13.141333 5.802667 17.066667 4.778667 6.314667 11.434667 9.386667 20.309333 9.386667 6.485333 0 11.605333-1.536 15.189333-4.778667 3.584-3.242667 5.290667-6.997333 5.290667-11.264 0-4.096-1.706667-7.68-5.12-10.752-3.413333-3.242667-11.264-6.144-23.552-9.045333-20.138667-4.778667-34.645333-11.093333-43.178667-18.944-8.704-7.850667-12.970667-17.92-12.970666-30.037334 0-8.021333 2.218667-15.530667 6.656-22.698666 4.437333-7.168 11.093333-12.629333 19.968-16.725334 8.874667-4.096 21.162667-6.144 36.693333-6.144 19.114667 0 33.621333 3.754667 43.52 11.093334 10.069333 7.338667 15.872 19.114667 17.92 35.328l-43.349333 2.730666c-1.194667-6.997333-3.584-12.117333-7.338667-15.36s-8.874667-4.778667-15.36-4.778666c-5.290667 0-9.386667 1.194667-12.117333 3.584-2.730667 2.389333-4.096 5.290667-4.096 8.704 0 2.56 1.194667 4.778667 3.413333 6.656 2.218667 2.048 7.338667 3.925333 15.530667 5.802666 20.138667 4.608 34.474667 9.045333 43.178666 13.824 8.704 4.608 15.018667 10.410667 18.944 17.237334s5.973333 14.506667 5.973334 23.04c0 10.069333-2.56 19.114667-7.850667 27.648-5.290667 8.362667-12.629333 14.848-22.186667 19.114666-9.557333 4.437333-21.504 6.485333-35.84 6.485334-25.258667 0-42.837333-5.12-52.565333-15.36-9.898667-10.24-15.36-23.210667-16.725333-38.912zM403.626667 365.568c0-25.429333 6.826667-45.226667 20.309333-59.392s32.426667-21.162667 56.661333-21.162667c24.746667 0 43.861333 6.997333 57.344 20.821334 13.482667 13.994667 20.138667 33.450667 20.138667 58.538666 0 18.261333-2.901333 33.109333-8.874667 44.714667-5.802667 11.605333-14.336 20.650667-25.429333 27.136-11.093333 6.485333-24.917333 9.728-41.472 9.728-16.725333 0-30.72-2.730667-41.642667-8.362667-11.093333-5.632-19.968-14.506667-26.794666-26.624s-10.24-27.306667-10.24-45.397333z m46.08 0.170667c0 15.701333 2.730667 26.965333 8.362666 33.962666 5.632 6.826667 13.141333 10.24 22.869334 10.24 9.898667 0 17.578667-3.413333 23.04-10.069333s8.192-18.773333 8.192-36.181333c0-14.677333-2.901333-25.429333-8.533334-32.085334-5.632-6.826667-13.312-10.069333-23.04-10.069333-9.216 0-16.725333 3.413333-22.357333 10.24-5.802667 6.656-8.533333 18.090667-8.533333 33.962667z" fill="#FFFFFF" p-id="1717"></path><path d="M685.056 592.725333c-16.554667-15.872-35.84-28.16-57.173333-36.522666-21.333333-8.533333-43.861333-12.629333-66.730667-12.458667-23.722667 0.170667-46.933333 5.12-68.778667 14.677333-22.016 9.557333-41.301333 23.04-57.685333 40.106667-15.872 16.554667-28.16 35.84-36.522667 57.173333-8.533333 21.333333-12.629333 43.861333-12.458666 66.730667 0.170667 23.722667 5.12 46.933333 14.677333 68.778667 9.557333 22.016 23.04 41.301333 40.106667 57.685333 16.554667 15.872 35.84 28.16 57.173333 36.522667 21.333333 8.533333 43.861333 12.629333 66.730667 12.458666 23.722667-0.170667 46.933333-5.12 68.778666-14.677333 22.016-9.557333 41.301333-23.04 57.685334-40.106667 15.872-16.554667 28.16-35.84 36.522666-57.173333 8.533333-21.333333 12.629333-43.861333 12.458667-66.730667-0.170667-23.722667-5.12-46.933333-14.677333-68.778666s-23.04-41.472-40.106667-57.685334z m23.04 65.024c1.194667 2.730667 2.218667 5.290667 3.242667 8.021334l-82.944 35.84-0.341334 1.024c-0.853333-3.072-1.877333-5.973333-3.242666-9.045334-14.848-34.304-54.954667-50.176-89.258667-35.328L499.541333 575.146667c80.384-34.474667 173.738667 2.389333 208.554667 82.602666z m-165.034667 17.92c24.917333-10.752 53.930667 0.682667 64.682667 25.6s-0.682667 53.930667-25.6 64.682667-53.930667-0.682667-64.682667-25.6c-10.752-24.917333 0.682667-53.930667 25.6-64.682667z m-125.781333 108.032l83.114667-36.010666c14.848 34.304 54.954667 50.176 89.258666 35.328l36.010667 83.114666c-80.213333 34.816-173.568-2.218667-208.384-82.432z" fill="#4191FB" p-id="1718"></path></svg>