<?xml version="1.0" standalone="no"?><!DOCTYPE svg PUBLIC "-//W3C//DTD SVG 1.1//EN" "http://www.w3.org/Graphics/SVG/1.1/DTD/svg11.dtd"><svg t="1616565020335" class="icon" viewBox="0 0 1024 1024" version="1.1" xmlns="http://www.w3.org/2000/svg" p-id="3773" xmlns:xlink="http://www.w3.org/1999/xlink" width="64" height="64"><defs><style type="text/css"></style></defs><path d="M832.2 127.9v766H192.7v-766h639.5m0-64H192.7c-35.3 0-64 28.7-64 64v766c0 35.3 28.7 64 64 64h639.5c35.3 0 64-28.7 64-64v-766c0-35.4-28.7-64-64-64z" fill="#A3BDD3" p-id="3774"></path><path d="M287 114.7h32v813.7h-32z" fill="#A3BDD3" p-id="3775"></path><path d="M189.995 227.763v-32h97.9v32zM189.999 327.16v-32h97.9v32zM190.002 426.557v-32h97.9v32zM190.005 525.953v-32h97.9v32zM190.008 625.35v-32h97.9v32zM190.015 824.144v-32h97.9v32zM190.011 724.747v-32h97.9v32zM734.02 227.787v-32h97.9v32zM734.023 327.184v-32h97.9v32zM734.026 426.58v-32h97.9v32zM734.03 525.978v-32h97.9v32zM734.032 625.374v-32h97.9v32z" fill="#A3BDD3" p-id="3776"></path><path d="M733.039 824.168v-32h97.9v32z" fill="#8C98A6" p-id="3777"></path><path d="M734.036 724.771v-32h97.9v32z" fill="#A3BDD3" p-id="3778"></path><path d="M703.8 106.9h32v813.7h-32zM581.1 542.8l-86.3 68.1c-23.3 18.3-57.4 1.8-57.4-27.8V430.8c0-29.6 34.2-46.2 57.4-27.8l86.3 68.1c23.2 18.2 23.2 53.4 0 71.7z" fill="#A3BDD3" p-id="3779"></path><path d="M896.2 958.3H351.4v-176c0-35.3 28.7-64 64-64h480.7c35.3 0 64 28.7 64 64v112c0.1 35.4-28.6 64-63.9 64z" fill="#8AA9BF" p-id="3780"></path><path d="M460.9 771l48.6 112h0.8l48.4-112h27.4v142.8h-23.4v-98.4h-0.8l-42 98.4h-20.2l-42-98.4h-0.8v98.4h-23.4V771h27.4zM729.1 789.4c12 13.4 18 31.2 18 53.2 0 22-6 39.6-18 53-12.6 14-29.8 21-51.6 21-22 0-39.2-7.2-51.6-21.2-12-13.6-17.8-31.2-17.8-52.8 0-21.8 5.8-39.4 17.8-53 12.4-14.4 29.6-21.4 51.6-21.4 21.8 0 39 7 51.6 21.2z m-86 14.4c-7.8 9.6-11.6 22.4-11.6 38.8 0 16.2 3.8 29 11.6 38.6 8 9.8 19.6 14.8 34.4 14.8s26.2-4.8 34.2-14.2c7.8-9.4 11.8-22.4 11.8-39.2s-4-30-11.8-39.6c-8-9.6-19.4-14.2-34.2-14.2s-26.2 5-34.4 15zM781.5 771l39.2 116.4h0.6L860.5 771h25.4l-50.8 142.8h-28.2L756.1 771h25.4z" fill="#FFFFFF" p-id="3781"></path></svg>