<?xml version="1.0" standalone="no"?><!DOCTYPE svg PUBLIC "-//W3C//DTD SVG 1.1//EN" "http://www.w3.org/Graphics/SVG/1.1/DTD/svg11.dtd"><svg t="1616563632470" class="icon" viewBox="0 0 1024 1024" version="1.1" xmlns="http://www.w3.org/2000/svg" p-id="1251" xmlns:xlink="http://www.w3.org/1999/xlink" width="64" height="64"><defs><style type="text/css"></style></defs><path d="M751.80113 11.570621H210.932429a74.804068 74.804068 0 0 0-74.572655 74.572656v851.713446A74.804068 74.804068 0 0 0 210.932429 1012.429379h708.700565a74.804068 74.804068 0 0 0 74.572656-74.572656V254.032994z" fill="#E9FFE9" p-id="1252"></path><path d="M751.80113 179.344633a74.861921 74.861921 0 0 0 74.572655 74.630508h167.774012L751.80113 11.570621z" fill="#97DD97" p-id="1253"></path><path d="M18.223729 624.813559m69.423729 0l569.853107 0q69.423729 0 69.423729 69.423729l0 185.129944q0 69.423729-69.423729 69.423728l-569.853107 0q-69.423729 0-69.423729-69.423728l0-185.129944q0-69.423729 69.423729-69.423729Z" fill="#65CE65" p-id="1254"></path><path d="M82.903503 700.022599h24.471864v176.50983h-24.471864z m110.499435 69.423729a54.208362 54.208362 0 0 0-11.107797-36.389605 39.629379 39.629379 0 0 0-31.703503-12.901243 42.522034 42.522034 0 0 0-31.934915 11.570622 45.356836 45.356836 0 0 0-11.281356 32.918418l-3.586892-34.017627a56.638192 56.638192 0 0 1 23.141243-25.513221 68.498079 68.498079 0 0 1 33.323389-7.810169 55.943955 55.943955 0 0 1 31.182825 8.504407 52.067797 52.067797 0 0 1 19.72791 24.58757 100.664407 100.664407 0 0 1 6.768813 39.050848v107.143954h-24.529717z m110.557288 0a53.919096 53.919096 0 0 0-11.223503-36.389605 39.629379 39.629379 0 0 0-31.529943-13.016949 40.497175 40.497175 0 0 0-31.877062 12.554124 51.2 51.2 0 0 0-11.281356 35.406102l-10.41356-25.51322a75.20904 75.20904 0 0 1 23.661921-33.612656 57.853107 57.853107 0 0 1 36.389605-11.570621 61.729266 61.729266 0 0 1 32.802712 8.504407 53.340565 53.340565 0 0 1 20.827118 24.58757 96.325424 96.325424 0 0 1 7.115932 39.050848v107.143954h-24.471864zM363.780339 700.022599H388.483616v248.305537h-24.703277z m43.158418 171.997288a42.695593 42.695593 0 0 1-21.058531-23.141243l2.60339-37.199548a48.075932 48.075932 0 0 0 5.438192 22.215593 44.720452 44.720452 0 0 0 15.620339 17.355932 43.042712 43.042712 0 0 0 23.83548 6.653108 43.968362 43.968362 0 0 0 33.959774-13.248362 52.762034 52.762034 0 0 0 12.033446-36.968135V769.446328a54.266215 54.266215 0 0 0-12.033446-37.662373 48.885876 48.885876 0 0 0-57.853107-6.826667 44.778305 44.778305 0 0 0-15.620339 16.950961A46.282486 46.282486 0 0 0 388.483616 763.661017l-3.586893-34.017627a56.001808 56.001808 0 0 1 24.414011-24.703277 78.101695 78.101695 0 0 1 35.463955-7.578757 58.952316 58.952316 0 0 1 31.819209 8.446554 52.704181 52.704181 0 0 1 20.306441 24.58757A97.36678 97.36678 0 0 1 504.189831 769.446328v38.472316a93.143503 93.143503 0 0 1-7.173786 38.414463 53.224859 53.224859 0 0 1-20.884972 24.414012 62.19209 62.19209 0 0 1-33.034124 8.3887 80.99435 80.99435 0 0 1-36.158192-7.347344zM577.258305 878.846554l-15.793898-7.289492a60.977175 60.977175 0 0 1-25.397514-21.116384 76.366102 76.366102 0 0 1-12.207006-33.786215h24.703277a48.307345 48.307345 0 0 0 8.504407 21.289944 40.497175 40.497175 0 0 0 16.893107 13.421921 59.357288 59.357288 0 0 0 24.066893 4.570395 47.092429 47.092429 0 0 0 34.249039-11.570621 44.48904 44.48904 0 0 0 12.207006-33.381243v-7.520904a43.274124 43.274124 0 0 0-11.570622-32.39774 45.414689 45.414689 0 0 0-33.034124-11.570622h-17.355932v-22.794124h17.355932a41.88565 41.88565 0 0 0 30.025763-10.066441 36.794576 36.794576 0 0 0 10.644972-28.232316v-7.63661a39.745085 39.745085 0 0 0-11.16565-30.199322 43.679096 43.679096 0 0 0-31.356384-10.587119 46.91887 46.91887 0 0 0-20.595707 4.396836 43.505537 43.505537 0 0 0-15.562485 12.785537 54.613333 54.613333 0 0 0-9.256498 20.190734h-24.645423a81.457175 81.457175 0 0 1 12.843389-32.629152 62.654915 62.654915 0 0 1 23.951187-20.769266 74.514802 74.514802 0 0 1 33.091977-7.115932q31.992768 0 49.52226 16.835254t17.355932 47.439548v7.463051a54.671186 54.671186 0 0 1-8.215141 30.199322 47.84452 47.84452 0 0 1-23.141243 18.80226 41.88565 41.88565 0 0 1 26.323164 18.686554 68.035254 68.035254 0 0 1 9.372203 37.257401v7.463051a76.134689 76.134689 0 0 1-8.677966 36.563164 54.902599 54.902599 0 0 1-24.240452 23.141243 84.639096 84.639096 0 0 1-38.35661 7.983728z" fill="#FFFFFF" p-id="1255"></path><path d="M413.649718 393.40113m-130.169492 0a130.169492 130.169492 0 1 0 260.338983 0 130.169492 130.169492 0 1 0-260.338983 0Z" fill="#97DD97" p-id="1256"></path></svg>