<?xml version="1.0" standalone="no"?><!DOCTYPE svg PUBLIC "-//W3C//DTD SVG 1.1//EN" "http://www.w3.org/Graphics/SVG/1.1/DTD/svg11.dtd"><svg t="1616565414026" class="icon" viewBox="0 0 1024 1024" version="1.1" xmlns="http://www.w3.org/2000/svg" p-id="4233" xmlns:xlink="http://www.w3.org/1999/xlink" width="64" height="64"><defs><style type="text/css"></style></defs><path d="M536.3 70.5h57.4v91.12c108.22 0.61 216.55-1.12 324.67 0.5 23.28-2.22 41.51 15.9 39.18 39.18 1.72 189.12-0.41 378.34 1 567.56-1 20.45 2 43.13-9.72 61.25-14.78 10.73-34 9.31-51.32 10.12-101.24-0.5-202.48-0.31-303.82-0.31v101.25h-63C376.44 913 221.84 887.3 67.45 860.18q-0.15-354.29 0-708.48c156.22-27.04 312.43-54.58 468.85-81.2z" fill="#D24625" p-id="4234"></path><path d="M593.7 192h334.1v617.55H593.7v-81h243v-40.5h-243v-50.6h243v-40.5H593.8c-0.1-19.84-0.1-39.69-0.21-59.53 40.1 12.45 85.76 12.15 121.6-12 38.78-23 59-66.82 62.37-110.55-44.45-0.3-88.89-0.2-133.23-0.2-0.11-44 0.5-88.08-0.91-132q-24.92 4.86-49.71 10.22z" fill="#FFFFFF" p-id="4235"></path><path d="M664.67 261.54C735 264.78 794.16 324 797.91 394.16c-44.45 0.51-88.89 0.31-133.33 0.31-0.01-44.34-0.12-88.69 0.09-132.93zM290 392.75c19.94-0.91 44.65-4.56 58.1 14.17 11.55 19.84 10.93 46 1.32 66.41-11.55 20.86-37.67 18.83-57.81 21.26-2.13-33.91-1.94-67.83-1.61-101.84z" fill="#D24625" p-id="4236"></path><path d="M114.33 544.84V421.11h37.12q21.1 0 27.5 1.86 9.85 2.77 16.49 12.11t6.64 24.09q0 11.39-3.83 19.16a33.28 33.28 0 0 1-9.73 12.2 32.5 32.5 0 0 1-12 5.86q-8.28 1.76-24 1.77h-15.06v46.68zM137.46 442v35.11h12.66q13.67 0 18.28-1.94a15.42 15.42 0 0 0 7.23-6.08 17.58 17.58 0 0 0 2.62-9.62 16.79 16.79 0 0 0-3.67-11.14 15.7 15.7 0 0 0-9.3-5.49q-4.15-0.83-16.64-0.84zM221.06 544.84V421.11h37.12q21.1 0 27.5 1.86 9.85 2.77 16.49 12.11t6.64 24.09q0 11.39-3.83 19.16a33.28 33.28 0 0 1-9.73 12.2 32.5 32.5 0 0 1-12 5.86q-8.28 1.76-24 1.77h-15.07v46.68zM244.18 442v35.11h12.66q13.67 0 18.28-1.94a15.42 15.42 0 0 0 7.23-6.08 17.58 17.58 0 0 0 2.62-9.62 16.79 16.79 0 0 0-3.67-11.14 15.7 15.7 0 0 0-9.3-5.49q-4.15-0.83-16.64-0.84zM353.57 544.84V442h-34v-20.89h91V442H376.7v102.8z" fill="#FFFFFF" p-id="4237"></path></svg>