<?xml version="1.0" standalone="no"?><!DOCTYPE svg PUBLIC "-//W3C//DTD SVG 1.1//EN" "http://www.w3.org/Graphics/SVG/1.1/DTD/svg11.dtd"><svg t="1616589213639" class="icon" viewBox="0 0 1024 1024" version="1.1" xmlns="http://www.w3.org/2000/svg" p-id="2468" xmlns:xlink="http://www.w3.org/1999/xlink" width="64" height="64"><defs><style type="text/css"></style></defs><path d="M861.229614 307.020085V909.806732c0 14.922383-12.100183 27.022565-27.022565 27.022565H209.689462c-11.359355 0-20.566783-9.207428-20.566783-20.566783V101.140593c0-8.32549 6.738003-15.063493 15.063492-15.063492h420.860579c0.881938 0 1.305268 1.023048 0.740827 1.658042-0.388053 0.388053-0.352775 1.023048 0.070555 1.4111l235.089262 217.168292c0.176388 0.176388 0.28222 0.42333 0.28222 0.70555z" fill="#211402" p-id="2469"></path><path d="M531.808316 401.987115H56.373445c-2.575258 0-4.65663-2.081373-4.65663-4.65663V205.456162c0-2.575258 2.081373-4.65663 4.65663-4.656631h475.434871c2.575258 0 4.65663 2.081373 4.65663 4.656631v191.874323c0 2.575258-2.081373 4.65663-4.65663 4.65663zM625.117305 292.450477V86.077101l236.006476 220.519654h-221.895476c-7.796328 0-14.111-6.314673-14.111-14.146278z" fill="#DB69FF" p-id="2470"></path><path d="M300.811245 288.252455c8.18438-7.090778 21.30761-8.4666 27.551727-8.4666h3.880525l-0.14111 17.321252s-4.65663 0.035278-7.831605 0.599718c-3.210253 0.56444-7.372998 1.658043-10.01881 4.444965 0 0-0.176388 6.879113-0.176387 14.287387v30.479761H300.917077l-0.105832-58.666483z" fill="#13222D" p-id="2471"></path><path d="M561.970579 620.95456c21.272333-18.48541 55.491508-22.048438 71.789713-22.048438h10.124643l-0.352775 45.119923s-12.100183 0.105833-20.390395 1.587487c-8.396045 1.516933-19.19096 4.303855-26.105351 11.57102 0 0-0.493885 17.92097-0.493885 37.182486v79.374375h-34.360285l-0.211665-152.786853zM444.637613 692.77955V774.341131h-41.874393v-233.99566h67.626968c48.894615 0 73.306646 24.658973 73.306646 74.012196 0 23.953423-7.372998 43.17966-22.118993 57.643435-14.745995 14.463775-33.231405 21.378165-55.385675 20.778448h-21.554553z m0-113.769938v75.529128h18.132635c24.623695 0 36.900265-12.735178 36.900266-38.205533 0-24.870638-12.170738-37.323595-36.547491-37.323595h-18.48541z" fill="#DB69FF" p-id="2472"></path><path d="M253.539394 316.439177v31.079478H237.417577V258.372412h26.070072c18.838185 0 28.257278 9.419093 28.257278 28.222 0 9.136873-2.857478 16.474593-8.537155 21.977883-5.679678 5.50329-12.805733 8.149103-21.342888 7.90216h-8.32549z m0-43.32077v28.78644h6.984945c9.489648 0 14.216833-4.868295 14.216833-14.569607 0-9.489648-4.691908-14.216833-14.075723-14.216833h-7.126055z" fill="#211402" p-id="2473"></path></svg>