<?xml version="1.0" standalone="no"?><!DOCTYPE svg PUBLIC "-//W3C//DTD SVG 1.1//EN" "http://www.w3.org/Graphics/SVG/1.1/DTD/svg11.dtd"><svg t="1616508928221" class="icon" viewBox="0 0 1024 1024" version="1.1" xmlns="http://www.w3.org/2000/svg" p-id="2191" xmlns:xlink="http://www.w3.org/1999/xlink" width="64" height="64"><defs><style type="text/css"></style></defs><path d="M510.122667 172.8c-242.944 0-441.770667 132.522667-441.770667 296.405333 0 144.896 157.269333 265.045333 363.989333 290.688v94.08h150.613334V760.32c37.546667-3.968 72.490667-11.050667 105.6-21.205333l61.013333 114.858666h170.496l-102.485333-172.714666c82.602667-53.888 134.272-129.450667 134.272-212.053334 0-163.882667-198.784-296.405333-441.770667-296.405333m67.584 115.712c185.557333 0 322.474667 61.866667 322.474667 202.794667 0 75.52-40.618667 128.554667-106.88 161.237333a46.122667 46.122667 0 0 1-9.728-6.656c-15.914667-7.04-42.410667-15.018667-42.410667-15.018667s131.626667-9.685333 131.626667-140.885333-137.813333-133.418667-137.813334-133.418667h-302.592v316.288c-112.64-32.682667-190.378667-102.058667-190.378666-181.546666 0-112.213333 150.186667-202.794667 335.701333-202.794667m6.656 175.786667h91.434667s41.941333-2.133333 41.941333 41.557333c0 42.837333-41.941333 42.837333-41.941333 42.837333h-91.434667v-84.352m-1.322667 194.816h40.618667c7.936 0 11.946667 2.218667 18.986667 8.832 5.76 4.394667 11.946667 12.8 17.237333 20.309334-24.32 3.114667-49.92 4.437333-76.842667 4.437333z" fill="#1976D2" p-id="2192"></path></svg>