<?xml version="1.0" standalone="no"?><!DOCTYPE svg PUBLIC "-//W3C//DTD SVG 1.1//EN" "http://www.w3.org/Graphics/SVG/1.1/DTD/svg11.dtd"><svg t="1616423285842" class="icon" viewBox="0 0 1024 1024" version="1.1" xmlns="http://www.w3.org/2000/svg" p-id="18985" xmlns:xlink="http://www.w3.org/1999/xlink" width="64" height="64"><defs><style type="text/css"></style></defs><path d="M838.13658 452.620999a61.950591 61.950591 0 0 0-39.423103-10.239767h-68.862433v83.710095h69.118427a59.646643 59.646643 0 0 0 38.911115-11.263743 38.911115 38.911115 0 0 0 12.543715-30.975296 37.631144 37.631144 0 0 0-12.287721-31.231289zM518.399854 451.085034l-42.751027 115.965362h86.526032l-42.495034-115.965362h-1.279971zM296.964892 452.620999a62.462579 62.462579 0 0 0-39.679097-10.239767H188.423361v83.710095h69.374422a58.878661 58.878661 0 0 0 38.655121-11.263743 38.911115 38.911115 0 0 0 12.543714-30.975296 38.399126 38.399126 0 0 0-12.031726-31.231289z" fill="#DB7035" p-id="18986"></path><path d="M947.190099 216.08238l-192.251626-204.795341A38.143132 38.143132 0 0 0 726.52312 0.023295h-614.386023a40.44708 40.44708 0 0 0-39.167109 41.471057v941.034591A40.44708 40.44708 0 0 0 112.137097 1024H919.03074a40.191086 40.191086 0 0 0 38.911115-41.471057V245.52171A44.030998 44.030998 0 0 0 947.190099 216.08238zM319.49238 665.608153a66.81448 66.81448 0 0 1-12.287721-34.047225l-3.07193-31.999272a44.798981 44.798981 0 0 0-13.567691-30.719301 51.198835 51.198835 0 0 0-33.791232-9.471785H188.423361V665.608153H149.512247V409.613977h113.149425a97.277787 97.277787 0 0 1 61.950591 17.663598 67.582462 67.582462 0 0 1 23.551464 55.550737 61.694596 61.694596 0 0 1-10.751755 35.839184 57.086701 57.086701 0 0 1-33.279243 22.527488 47.358923 47.358923 0 0 1 38.399126 45.310969l4.095907 40.703074a64.510532 64.510532 0 0 0 15.103657 38.399126z m278.521663 0l-24.063452-66.046497h-110.077496L439.809642 665.608153h-41.72705l98.813752-255.994176h44.542986L639.997088 665.608153z m262.650025 0a69.374422 69.374422 0 0 1-11.00775-33.791231l-3.327924-31.999272a43.775004 43.775004 0 0 0-13.567691-30.719301 51.198835 51.198835 0 0 0-33.791232-9.471785h-69.118427V665.608153H691.195923V409.613977h113.40542a96.509804 96.509804 0 0 1 61.694597 17.663598 66.81448 66.81448 0 0 1 23.551464 55.550737 61.694596 61.694596 0 0 1-10.751755 35.839184 56.318719 56.318719 0 0 1-33.279243 22.527488 46.846934 46.846934 0 0 1 38.399126 45.310969l4.351901 40.703074a61.438602 61.438602 0 0 0 14.591668 38.399126z" fill="#DB7035" p-id="18987"></path></svg>