<?xml version="1.0" standalone="no"?><!DOCTYPE svg PUBLIC "-//W3C//DTD SVG 1.1//EN" "http://www.w3.org/Graphics/SVG/1.1/DTD/svg11.dtd"><svg t="1616565423835" class="icon" viewBox="0 0 1024 1024" version="1.1" xmlns="http://www.w3.org/2000/svg" p-id="4381" xmlns:xlink="http://www.w3.org/1999/xlink" width="64" height="64"><defs><style type="text/css"></style></defs><path d="M535.16 72.24h57.63v91.47c108.65 0.61 217.4-1.12 325.95 0.51 23.37-2.23 41.68 16 39.34 39.34 1.73 189.86-0.41 379.82 1 569.79-1 20.53 2 43.29-9.76 61.49-14.84 10.77-34.14 9.35-51.52 10.16-101.64-0.51-203.28-0.31-305-0.31v101.64h-63.24C374.67 918.07 219.47 892.26 64.47 865q-0.15-355.69 0-711.27C221.3 126.62 378.13 99 535.16 72.24z" fill="#477DA7" p-id="4382"></path><path d="M101.45 548.45V424.23h48.87q18.43 0 26.78 3.34a27 27 0 0 1 13.37 11.9 38 38 0 0 1 5 19.58q0 14-7.61 23.09t-22.74 11.48a55.23 55.23 0 0 1 12.43 10.42q4.9 5.67 13.22 20.16l14 24.24h-27.71l-16.78-27q-8.94-14.49-12.24-18.26a17.85 17.85 0 0 0-7-5.17q-3.69-1.4-11.69-1.4h-4.71v51.86z m23.22-71.68h17.18q16.7 0 20.86-1.53a12.65 12.65 0 0 0 6.51-5.25 17.18 17.18 0 0 0 2.35-9.32q0-6.27-3.1-10.12a13.91 13.91 0 0 0-8.75-4.87q-2.82-0.43-16.94-0.43h-18.12zM217.06 548.45V424.23h34.75L272.68 509l20.63-84.74h34.82v124.19h-21.57v-97.79l-22.83 97.79h-22.35l-22.75-97.79v97.79zM380.53 548.45l-41.1-124.22h25.18l29.1 91.94 28.16-91.94h24.63l-41.18 124.22zM458.42 424.23h46q13.65 0 20.35 1.23a28.56 28.56 0 0 1 12 5.12 31.08 31.08 0 0 1 8.8 10.42 29.87 29.87 0 0 1 3.53 14.53 30.66 30.66 0 0 1-4.35 16 27.69 27.69 0 0 1-11.81 10.94q10.51 3.31 16.16 11.27a31.53 31.53 0 0 1 5.65 18.73 39.35 39.35 0 0 1-3.65 16.48 32.64 32.64 0 0 1-10 12.79 31.37 31.37 0 0 1-15.57 5.9q-5.81 0.67-28 0.84h-39.11z m23.22 20.68v28.72h15.22q13.57 0 16.87-0.43a14.81 14.81 0 0 0 9.37-4.45 13.7 13.7 0 0 0 3.41-9.7 14.35 14.35 0 0 0-2.94-9.37q-2.94-3.6-8.74-4.36-3.45-0.43-19.85-0.43z m0 49.4v33.21h21.49q12.55 0 15.92-0.76a14.08 14.08 0 0 0 8.43-5q3.26-3.95 3.26-10.55a17.18 17.18 0 0 0-2.51-9.49 14.4 14.4 0 0 0-7.26-5.68q-4.75-1.77-20.59-1.78z" fill="#FFFFFF" p-id="4383"></path><path d="M806.683 502.289l9.276-32.263 32.263 9.275-9.276 32.264zM769.605 631.362l9.276-32.263 32.263 9.275-9.276 32.263zM619.07 588.1l9.28-32.26-32.26-9.28-6.69 23.25v9.76l29.67 8.53zM788.185 566.857l9.276-32.263 32.263 9.275-9.276 32.264z" fill="#FFFFFF" p-id="4384"></path><path d="M589.4 194.21v294.61l29.51-102.64c2.88-10 18.16-14 26.65-11.68l-4.64 16.13 32.26 9.28 4.64-16.13 150.56 43.29-4.64 16.13 32.26 9.27 4.64-16.13c8.43 2.52 19.25 14 16.37 24.05l-62.39 217c-2.88 10-18.16 14-26.65 11.68l4.64-16.13-32.26-9.28-4.64 16.13-150.55-43.3 4.64-16.13-20.4-5.86v199.7h335.41v-620z" fill="#FFFFFF" p-id="4385"></path><path d="M605.337 514.254l9.276-32.263 32.263 9.276-9.276 32.263zM766.47 547.45l-73.03-76.27-29.36 102.11 102.39-25.84zM623.925 449.779l9.275-32.263 32.263 9.275-9.275 32.263z" fill="#FFFFFF" p-id="4386"></path></svg>