<?xml version="1.0" standalone="no"?><!DOCTYPE svg PUBLIC "-//W3C//DTD SVG 1.1//EN" "http://www.w3.org/Graphics/SVG/1.1/DTD/svg11.dtd"><svg t="1616508371428" class="icon" viewBox="0 0 1024 1024" version="1.1" xmlns="http://www.w3.org/2000/svg" p-id="1148" xmlns:xlink="http://www.w3.org/1999/xlink" width="64" height="64"><defs><style type="text/css"></style></defs><path d="M180.928 538.368v-86.048l-81.76 90.944z m689.472 0l1.12-86.048 78.56 87.808z" fill="#5C7B93" p-id="1149"></path><path d="M870.4 882.528a47.52 47.52 0 0 1-12.128 30.912 43.328 43.328 0 0 1-30.88 12.128h-603.424a47.36 47.36 0 0 1-30.88-12.128 43.296 43.296 0 0 1-12.16-30.912V107.04a41.6 41.6 0 0 1 43.04-43.04h369.536a47.52 47.52 0 0 1 30.912 12.128l232.768 232.768a43.424 43.424 0 0 1 12.128 30.912v542.72z" fill="#EBECF0" p-id="1150"></path><path d="M870.4 882.528v43.04a47.424 47.424 0 0 1-12.128 30.88 43.2 43.2 0 0 1-30.88 12.128h-603.424a42.4 42.4 0 0 1-43.04-43.008v-43.04a47.392 47.392 0 0 0 12.16 30.912 43.328 43.328 0 0 0 30.88 12.128h603.424a41.6 41.6 0 0 0 43.008-43.04z" fill="#C1C7D0" p-id="1151"></path><path d="M111.328 537.248h829.792a15.328 15.328 0 0 1 15.328 15.328v199.904a47.488 47.488 0 0 1-12.128 30.88 43.328 43.328 0 0 1-30.88 12.128h-774.4a47.488 47.488 0 0 1-30.88-12.128 43.328 43.328 0 0 1-12.128-30.88v-199.808a15.328 15.328 0 0 1 15.296-15.424z" fill="#8EA9C2" p-id="1152"></path><path d="M247.232 286.976m20.64 0l110.752 0q20.64 0 20.64 20.64l0 0q0 20.64-20.64 20.64l-110.752 0q-20.64 0-20.64-20.64l0 0q0-20.64 20.64-20.64Z" fill="#C1C7D0" p-id="1153"></path><path d="M247.232 171.456m20.64 0l282.56 0q20.64 0 20.64 20.64l0 0q0 20.64-20.64 20.64l-282.56 0q-20.64 0-20.64-20.64l0 0q0-20.64 20.64-20.64Z" fill="#C1C7D0" p-id="1154"></path><path d="M247.232 402.528m20.64 0l282.56 0q20.64 0 20.64 20.64l0 0q0 20.64-20.64 20.64l-282.56 0q-20.64 0-20.64-20.64l0 0q0-20.64 20.64-20.64Z" fill="#C1C7D0" p-id="1155"></path><path d="M859.392 308.896l-233.888-232.768a47.424 47.424 0 0 0-30.88-12.128v238.272a42.4 42.4 0 0 0 43.008 43.04h232.768v-5.632a52.928 52.928 0 0 0-11.008-30.784z" fill="#C1C7D0" p-id="1156"></path><path d="M378.624 592.896v24.8H321.28v133.44H284.352v-133.44H227.008v-24.8z" fill="#FFFFFF" p-id="1157"></path><path d="M580.896 592.896l-55.264 78.976 55.264 79.264h-40.8l-34.88-49.856-34.88 49.856h-41.056l55.264-79.264-55.264-78.976h41.056l34.88 49.824 34.88-49.824z" fill="#FFFFFF" p-id="1158"></path><path d="M783.232 592.896v24.8h-57.344v133.44H688.96v-133.44h-57.344v-24.8z" fill="#FFFFFF" p-id="1159"></path></svg>