<?xml version="1.0" standalone="no"?><!DOCTYPE svg PUBLIC "-//W3C//DTD SVG 1.1//EN" "http://www.w3.org/Graphics/SVG/1.1/DTD/svg11.dtd"><svg t="1616563647979" class="icon" viewBox="0 0 1024 1024" version="1.1" xmlns="http://www.w3.org/2000/svg" p-id="1562" xmlns:xlink="http://www.w3.org/1999/xlink" width="64" height="64"><defs><style type="text/css"></style></defs><path d="M923.136 969.557333H193.024v-909.653333h521.386667l208.725333 207.701333z" fill="#7CCDFF" p-id="1563"></path><path d="M912.896 253.952l2.56 671.914667c0 15.530667-12.458667 27.989333-27.989333 27.989333H237.909333c-15.530667 0-27.989333-12.458667-27.989333-27.989333V96.938667c0-15.530667 12.458667-27.989333 27.989333-27.989334l493.397334-1.024-38.912-39.936H239.274667c-36.352 0-65.706667 29.354667-65.706667 65.706667v835.584c0 36.352 29.354667 65.706667 65.706667 65.706667h646.826666c36.352 0 65.706667-29.354667 65.706667-65.706667V293.888l-38.912-39.936z" fill="#4191FB" p-id="1564"></path><path d="M692.394667 222.72c0 39.424 31.914667 71.338667 71.338666 71.338667h188.245334L692.394667 27.989333v194.730667z" fill="#C7E2FF" p-id="1565"></path><path d="M557.568 482.304H158.72c-50.346667 0-91.136-40.789333-91.136-91.136v-60.245333c0-50.346667 40.789333-91.136 91.136-91.136h398.848c50.346667 0 91.136 40.789333 91.136 91.136v60.245333c0 50.346667-40.789333 91.136-91.136 91.136z" fill="#4191FB" p-id="1566"></path><path d="M97.621333 287.573333h39.424l14.165334 87.210667 20.821333-87.210667h39.253333l20.821334 87.04 14.165333-87.04h39.253333L256 443.221333h-40.789333l-23.552-98.133333-23.552 98.133333H127.488l-29.866667-155.648zM298.837333 287.573333h54.613334l20.992 94.72 20.992-94.72h54.613333v155.818667h-33.962667v-118.784l-26.282666 118.784h-30.72L332.8 324.608v118.784h-33.962667v-155.818667zM463.36 287.573333h43.349333l30.208 112.128 29.866667-112.128h42.154667l-50.005334 155.818667h-45.056l-50.517333-155.818667z" fill="#FFFFFF" p-id="1567"></path><path d="M385.536 575.317333h-62.122667c-3.413333 0-6.144 2.730667-6.144 6.144v62.122667c0 3.413333 2.730667 6.144 6.144 6.144h62.122667c3.413333 0 6.144-2.730667 6.144-6.144v-62.122667c0-3.413333-2.901333-6.144-6.144-6.144zM385.536 680.618667h-62.122667c-3.413333 0-6.144 2.730667-6.144 6.144v62.122666c0 3.413333 2.730667 6.144 6.144 6.144h62.122667c3.413333 0 6.144-2.730667 6.144-6.144v-62.122666c0-3.413333-2.901333-6.144-6.144-6.144zM385.536 785.749333h-62.122667c-3.413333 0-6.144 2.730667-6.144 6.144v62.122667c0 3.413333 2.730667 6.144 6.144 6.144h62.122667c3.413333 0 6.144-2.730667 6.144-6.144V791.893333c0-3.413333-2.901333-6.144-6.144-6.144zM802.986667 575.317333h-62.122667c-3.413333 0-6.144 2.730667-6.144 6.144v62.122667c0 3.413333 2.730667 6.144 6.144 6.144h62.122667c3.413333 0 6.144-2.730667 6.144-6.144v-62.122667c0.170667-3.413333-2.730667-6.144-6.144-6.144zM802.986667 680.618667h-62.122667c-3.413333 0-6.144 2.730667-6.144 6.144v62.122666c0 3.413333 2.730667 6.144 6.144 6.144h62.122667c3.413333 0 6.144-2.730667 6.144-6.144v-62.122666c0.170667-3.413333-2.730667-6.144-6.144-6.144zM802.986667 785.749333h-62.122667c-3.413333 0-6.144 2.730667-6.144 6.144v62.122667c0 3.413333 2.730667 6.144 6.144 6.144h62.122667c3.413333 0 6.144-2.730667 6.144-6.144V791.893333c0.170667-3.413333-2.730667-6.144-6.144-6.144zM709.632 575.317333H416.768c-3.413333 0-6.144 2.730667-6.144 6.144v272.554667c0 3.413333 2.730667 6.144 6.144 6.144h293.034667c3.413333 0 6.144-2.730667 6.144-6.144V581.461333c0-3.413333-2.901333-6.144-6.314667-6.144z m-102.4 155.989334L541.013333 797.525333c-4.437333 4.437333-11.434667 4.437333-15.872 0v-148.138666c4.437333-4.437333 11.434667-4.437333 15.872 0l66.218667 66.218666c4.266667 4.266667 4.266667 11.434667 0 15.701334z" fill="#4191FB" p-id="1568"></path></svg>