<?xml version="1.0" encoding="UTF-8"?>
<svg width="153px" height="33px" viewBox="0 0 153 33" version="1.1" xmlns="http://www.w3.org/2000/svg" xmlns:xlink="http://www.w3.org/1999/xlink">
    <!-- Generator: Sketch 61 (89581) - https://sketch.com -->
    <title>LOGO</title>
    <desc>Created with Sketch.</desc>
    <g id="页面-1" stroke="none" stroke-width="1" fill="none" fill-rule="evenodd">
        <g id="LOGO" transform="translate(-10.000000, -9.000000)">
            <rect id="矩形" x="0" y="0" width="300" height="50"></rect>
            <text id="PORTAL" opacity="0.85" font-family="HanziPenTC-W5, HanziPen TC" font-size="30" font-weight="bold" line-spacing="32" fill="#85A5FF">
                <tspan x="56" y="40">PORTAL</tspan>
            </text>
            <g id="hcs_mgw-闪电立方" transform="translate(10.000000, 9.000000)" fill="#85A5FF" fill-rule="nonzero">
                <polygon id="路径" points="18.911625 16.50225 23.207625 19.59825 17.303625 26.39025 11.711625 20.58225 1.919625 32.48625 11.711625 24.80625 17.303625 30.71025 25.511625 21.30225 29.711625 24.11025 29.711625 13.71825"></polygon>
                <path d="M30.719625,28.55025 C28.607625,28.55025 26.615625,27.85425 24.911625,26.65425 L26.303625,24.75825 C27.599625,25.76625 29.111625,26.24625 30.791625,26.24625 C34.895625,26.24625 38.279625,22.83825 38.279625,18.73425 C38.279625,14.63025 34.919625,11.24625 30.815625,11.24625 L30.023625,11.24625 L28.919625,11.34225 L28.727625,10.33425 C27.815625,5.82225 23.831625,2.53425 19.223625,2.53425 C13.919625,2.53425 9.623625,6.83025 9.623625,12.13425 L9.623625,12.73425 L9.719625,13.93425 L8.519625,13.93425 C5.111625,13.93425 2.423625,16.62225 2.423625,19.93425 C2.423625,21.92625 3.431625,23.82225 5.015625,24.92625 L3.719625,26.82225 C1.415625,25.21425 0.023625,22.71825 0.023625,19.91025 C0.023625,15.71025 3.119625,12.20625 7.223625,11.60625 C7.415625,5.19825 12.719625,0.01425 19.223625,0.01425 C24.623625,0.01425 29.231625,3.61425 30.719625,8.60625 C36.119625,8.60625 40.511625,12.99825 40.511625,18.39825 C40.511625,24.15825 36.119625,28.55025 30.719625,28.55025" id="路径"></path>
            </g>
        </g>
    </g>
</svg>