<?xml version="1.0" standalone="no"?><!DOCTYPE svg PUBLIC "-//W3C//DTD SVG 1.1//EN" "http://www.w3.org/Graphics/SVG/1.1/DTD/svg11.dtd"><svg t="1616311873635" class="icon" viewBox="0 0 1024 1024" version="1.1" xmlns="http://www.w3.org/2000/svg" p-id="10541" width="28" height="28" xmlns:xlink="http://www.w3.org/1999/xlink"><defs><style type="text/css"></style></defs><path d="M446.506667 213.333333a42.666667 42.666667 0 0 1 35.498666 18.986667L554.666667 341.333333h256a42.666667 42.666667 0 0 1 42.666666 42.666667v384a42.666667 42.666667 0 0 1-42.666666 42.666667H213.333333a42.666667 42.666667 0 0 1-42.666666-42.666667V256a42.666667 42.666667 0 0 1 42.666666-42.666667h233.173334zM832 213.333333a21.333333 21.333333 0 1 1 0 42.666667h-256a21.333333 21.333333 0 1 1 0-42.666667h256z" fill="#85a5ff" p-id="10542" data-spm-anchor-id="a313x.7781069.0.i30" class="selected"></path><path d="M512 448a21.333333 21.333333 0 0 1 21.333333 21.333333v85.333334h85.333334a21.333333 21.333333 0 1 1 0 42.666666h-85.376l0.042666 85.333334a21.333333 21.333333 0 1 1-42.666666 0l-0.042667-85.333334H405.333333a21.333333 21.333333 0 1 1 0-42.666666h85.333334v-85.333334a21.333333 21.333333 0 0 1 21.333333-21.333333z" fill="#FFFFFF" p-id="10543"></path></svg>
