<?xml version="1.0" standalone="no"?><!DOCTYPE svg PUBLIC "-//W3C//DTD SVG 1.1//EN" "http://www.w3.org/Graphics/SVG/1.1/DTD/svg11.dtd"><svg t="1616312355978" class="icon" viewBox="0 0 1024 1024" version="1.1" xmlns="http://www.w3.org/2000/svg" p-id="16122" xmlns:xlink="http://www.w3.org/1999/xlink" width="24" height="24"><defs><style type="text/css"></style></defs><path d="M720.9 136.6h-71.5c0-36.9-29.9-66.8-66.8-66.8H445.5c-36.9 0-66.8 29.9-66.8 66.8h-71.5c-59.4 0-107.6 48.2-107.6 107.6v7.9h629v-7.9c-0.1-59.5-48.3-107.6-107.7-107.6z m-299.6 0c1.6-27 6.6-26.8 40.5-26.8h104.5c33 0 42.5-0.2 44.1 26.8H421.3zM286 895.3c3.3 34.9 32.5 61.5 67.6 61.5h322.1c35.1 0 64.4-26.7 67.6-61.6L799.6 284h-571L286 895.3z m343.5-17L669.9 345h50.5l-40.6 537.1c-1 13.1-11.9 23.3-25.1 23.3-14.7 0-26.3-12.5-25.2-27.1zM490.3 340.5h52.3v538.7c0 14.5-11.7 26.2-26.2 26.2s-26.2-11.7-26.2-26.2V340.5zM359.4 345l40.4 533.3c1.1 14.6-10.5 27.1-25.1 27.1-13.2 0-24.1-10.2-25.1-23.3L308.9 345h50.5z" p-id="16123" data-spm-anchor-id="a313x.7781069.0.i57" class="selected" fill="#85a5ff"></path></svg>
