<?xml version="1.0" standalone="no"?><!DOCTYPE svg PUBLIC "-//W3C//DTD SVG 1.1//EN" "http://www.w3.org/Graphics/SVG/1.1/DTD/svg11.dtd"><svg t="1616939730168" class="icon" viewBox="0 0 1024 1024" version="1.1" xmlns="http://www.w3.org/2000/svg" p-id="2387" xmlns:xlink="http://www.w3.org/1999/xlink" width="64" height="64"><defs><style type="text/css"></style></defs><path d="M853.333333 341.333333a42.666667 42.666667 0 0 1 42.666667 42.666667v470.954667a42.666667 42.666667 0 0 1-42.666667 42.666666h-384a42.666667 42.666667 0 0 1-42.666666-42.666666V768H213.333333a42.666667 42.666667 0 0 1-42.666666-42.666667V256a42.666667 42.666667 0 0 1 42.666666-42.666667h128V170.666667a42.666667 42.666667 0 0 1 42.666667-42.666667h213.333333a42.666667 42.666667 0 0 1 42.666667 42.666667v42.666666h128c38.528 0 42.666667 34.048 42.666667 42.666667v85.333333h42.666666z m-384 513.621334h384V384h-384v470.954667zM789.333333 725.333333a21.333333 21.333333 0 1 1 0 42.666667h-256a21.333333 21.333333 0 1 1 0-42.666667h256z m0-128a21.333333 21.333333 0 1 1 0 42.666667h-256a21.333333 21.333333 0 1 1 0-42.666667h256z m0-128a21.333333 21.333333 0 1 1 0 42.666667h-256a21.333333 21.333333 0 1 1 0-42.666667h256zM597.333333 170.666667H384v42.666666h213.333333V170.666667z m170.666667 85.333333H213.333333v469.333333h213.333334V384a42.666667 42.666667 0 0 1 42.666666-42.666667h298.666667V256z" fill="#85a5ff" p-id="2388"></path></svg>