<?xml version="1.0" standalone="no"?><!DOCTYPE svg PUBLIC "-//W3C//DTD SVG 1.1//EN" "http://www.w3.org/Graphics/SVG/1.1/DTD/svg11.dtd"><svg t="1616939781010" class="icon" viewBox="0 0 1024 1024" version="1.1" xmlns="http://www.w3.org/2000/svg" p-id="3618" xmlns:xlink="http://www.w3.org/1999/xlink" width="64" height="64"><defs><style type="text/css"></style></defs><path d="M896 725.333333V298.666667c0-68.266667-81.066667-110.933333-136.533333-68.266667L554.666667 384l-123.733334 93.866667c-21.333333 17.066667-21.333333 51.2 0 68.266666l315.733334 238.933334 12.8 8.533333c55.466667 42.666667 136.533333 0 136.533333-68.266667z" p-id="3619" fill="#85a5ff"></path><path d="M405.333333 580.266667c-21.333333-17.066667-34.133333-42.666667-34.133333-68.266667s12.8-51.2 34.133333-68.266667L554.666667 332.8V298.666667c0-68.266667-81.066667-110.933333-136.533334-68.266667l-285.866666 213.333333c-46.933333 34.133333-46.933333 102.4 0 136.533334l285.866666 213.333333c55.466667 42.666667 136.533333 0 136.533334-68.266667v-29.866666l-149.333334-115.2z" p-id="3620" fill="#85a5ff"></path></svg>