<?xml version="1.0" standalone="no"?><!DOCTYPE svg PUBLIC "-//W3C//DTD SVG 1.1//EN" "http://www.w3.org/Graphics/SVG/1.1/DTD/svg11.dtd"><svg t="1616313089432" class="icon" viewBox="0 0 1024 1024" version="1.1" xmlns="http://www.w3.org/2000/svg" p-id="26136" xmlns:xlink="http://www.w3.org/1999/xlink" width="22" height="22"><defs><style type="text/css"></style></defs><path d="M362.666667 64h-213.333334c-46.933333 0-85.333333 38.4-85.333333 85.333333v213.333334c0 46.933333 38.4 85.333333 85.333333 85.333333h213.333334c46.933333 0 85.333333-38.4 85.333333-85.333333v-213.333334c0-46.933333-38.4-85.333333-85.333333-85.333333zM874.666667 64h-213.333334c-46.933333 0-85.333333 38.4-85.333333 85.333333v213.333334c0 46.933333 38.4 85.333333 85.333333 85.333333h213.333334c46.933333 0 85.333333-38.4 85.333333-85.333333v-213.333334c0-46.933333-38.4-85.333333-85.333333-85.333333zM362.666667 576h-213.333334c-46.933333 0-85.333333 38.4-85.333333 85.333333v213.333334c0 46.933333 38.4 85.333333 85.333333 85.333333h213.333334c46.933333 0 85.333333-38.4 85.333333-85.333333v-213.333334c0-46.933333-38.4-85.333333-85.333333-85.333333zM874.666667 576h-213.333334c-46.933333 0-85.333333 38.4-85.333333 85.333333v213.333334c0 46.933333 38.4 85.333333 85.333333 85.333333h213.333334c46.933333 0 85.333333-38.4 85.333333-85.333333v-213.333334c0-46.933333-38.4-85.333333-85.333333-85.333333z" p-id="26137"></path></svg>
